<svg xmlns="http://www.w3.org/2000/svg" width="20" height="16" viewBox="0 0 20 16">
    <path fill="#000" fill-rule="evenodd" d="M18.936 14.68H1.064V2.34h2.872v1.49H5V2.34h10v1.49h1.064V2.34h2.872v12.34zm.32-13.403h-3.192V0H15v1.277H5V0H3.936v1.277H.745A.745.745 0 0 0 0 2.02V15c0 .41.334.745.745.745h18.51c.411 0 .745-.334.745-.745V2.021a.745.745 0 0 0-.745-.744zM15.744 5.85a.959.959 0 0 0 0 1.915.959.959 0 0 0 0-1.915m-3.83 0a.959.959 0 0 0 0 1.915.959.959 0 0 0 0-1.915m-3.83 0a.959.959 0 0 0 0 1.915.959.959 0 0 0 0-1.915m3.83 3.404a.959.959 0 0 0 0 1.915.959.959 0 0 0 0-1.915m-3.83 0a.959.959 0 0 0 0 1.915.959.959 0 0 0 0-1.915m-3.83 0a.959.959 0 0 0 0 1.915.959.959 0 0 0 0-1.915"/>
</svg>
